<svg id="Capa_1" data-name="Capa 1" xmlns="http://www.w3.org/2000/svg" viewBox="0 0 120 120"><defs><style>.cls-1,.cls-2{stroke:#0c0;stroke-miterlimit:10;}.cls-2{fill:#fff;}</style></defs><path class="cls-1" d="M58,46.59V17.83H61.8V46.59h7.8c1.31,0,2.61,0,3.92,0,.88,0,1.75.15,2.28-.93A1.86,1.86,0,0,1,77.23,45c5.21,0,10.45-.18,15.64.2a25.5,25.5,0,0,1,14.56,6.18c1,.88,2,1.88,3,2.85a2.06,2.06,0,0,1,.49,2.28,1.42,1.42,0,0,0,.25,1.13,27.76,27.76,0,0,1-2.78,36.53,27.84,27.84,0,0,1-35.46,2.91,3.26,3.26,0,0,0-1.73-.56q-11.19-.06-22.38,0a3.33,3.33,0,0,0-1.72.57A27.83,27.83,0,0,1,4.08,81a27.34,27.34,0,0,1,4.69-23.2c.26-.36.18-1,.28-1.44.13-.63.08-1.43.46-1.86,4.39-4.94,9.83-8.28,16.41-9,5.56-.57,11.2-.37,16.8-.45a2.09,2.09,0,0,1,1.63.69c.48.94,1.17.86,2,.86C50.14,46.58,54,46.59,58,46.59Zm2.06,3.55c-9.53,0-19.06,0-28.58,0a28.19,28.19,0,0,0-4.94.45A24.21,24.21,0,1,0,45,94.19,6.44,6.44,0,0,1,48.84,93c7.51,0,15,0,22.52,0A6.06,6.06,0,0,1,75,94.14,23.53,23.53,0,0,0,94.44,98a24.23,24.23,0,0,0-5.58-47.82Z"/><path class="cls-1" d="M88.91,94.31a20,20,0,1,1,20-21A19.92,19.92,0,0,1,88.91,94.31Zm-14.56-20,.3.15a4.38,4.38,0,0,0,2.75,4.17,4.22,4.22,0,0,0,5-.89Q87.35,73,92.13,68a4.52,4.52,0,0,0,0-6.48,4.68,4.68,0,0,0-6.59.05c-3.21,3.16-6.43,6.31-9.52,9.58A12.93,12.93,0,0,0,74.35,74.31ZM89.13,88.94a10.45,10.45,0,0,0,2.78-1.37q5.15-4.92,10.07-10a4.6,4.6,0,0,0-6.69-6.31c-3.24,3.23-6.49,6.45-9.7,9.71a4.36,4.36,0,0,0-.89,5A5.19,5.19,0,0,0,89.13,88.94Z"/><path class="cls-1" d="M14.65,74.32A16.43,16.43,0,1,1,30.92,90.81,16.45,16.45,0,0,1,14.65,74.32ZM31,88.42a14.05,14.05,0,1,0-14-14A14,14,0,0,0,31,88.42Z"/><path d="M51.73,80.85a6.85,6.85,0,0,1,.69-1.11c1.07-1.12,2.18-2.2,3.27-3.29.61-.61,1.25-.85,1.94-.14s.48,1.33-.15,1.94c-1.13,1.11-2.21,2.28-3.39,3.33a1.69,1.69,0,0,1-1.35.33C52.35,81.79,52.09,81.25,51.73,80.85Z"/><path d="M60.38,82.81c-.36-.29-.85-.51-1-.86a1.45,1.45,0,0,1,.14-1.29c1.19-1.31,2.47-2.54,3.74-3.78.55-.52,1.25-.53,1.61.12A1.84,1.84,0,0,1,65,78.62c-1.12,1.32-2.4,2.5-3.64,3.71A4.45,4.45,0,0,1,60.38,82.81Z"/><path class="cls-2" d="M101.57,74.64a3.35,3.35,0,0,0-6.69,0,3.35,3.35,0,1,0,6.69,0Zm-9.29,9.42a3.31,3.31,0,0,0-3.42-3.41A3.27,3.27,0,0,0,85.6,84a3.32,3.32,0,0,0,3.29,3.42A3.36,3.36,0,0,0,92.28,84.06Z"/><path d="M79.16,77.67A3.33,3.33,0,1,1,79.37,71a3.33,3.33,0,0,1-.21,6.65Z"/><path d="M88.5,68.41A3.39,3.39,0,0,1,85.17,65a3.32,3.32,0,0,1,3.43-3.28A3.23,3.23,0,0,1,91.91,65,3.3,3.3,0,0,1,88.5,68.41Z"/><path d="M101.57,74.64a3.35,3.35,0,1,1-6.69,0,3.35,3.35,0,0,1,6.69,0Z"/><path d="M92.28,84.06a3.36,3.36,0,0,1-3.39,3.33A3.32,3.32,0,0,1,85.6,84a3.27,3.27,0,0,1,3.26-3.32A3.31,3.31,0,0,1,92.28,84.06Z"/><path d="M28.57,72.05c0-1.51,0-2.92,0-4.33,0-1,.41-1.57,1.5-1.45.43,0,.87,0,1.31,0,2.12,0,2.22.09,2.23,2.28v3.49h4.08c1.46,0,1.69.25,1.69,1.73,0,3.63.27,3.23-3.1,3.3-.86,0-1.72,0-2.72,0,0,1.52,0,2.94,0,4.35,0,1-.42,1.48-1.49,1.46-3.78-.06-3.48.47-3.48-3.37V77.06c-1.53,0-2.9,0-4.27,0-1.08,0-1.65-.36-1.56-1.52a13.49,13.49,0,0,0,0-2c-.09-1.11.47-1.49,1.48-1.49C25.65,72.06,27.06,72.05,28.57,72.05Z"/></svg>