<svg id="Capa_1" data-name="Capa 1" xmlns="http://www.w3.org/2000/svg" viewBox="0 0 160 70"><defs><style>.cls-1{fill:#1d82f0;}.cls-2{fill:#0c0;}.cls-3{fill:#fff;}.cls-4{fill:#17e27a;}.cls-5{fill:none;stroke:#17e27a;}.cls-6{font-size:11px;font-family:ClanPro-News, Clan Pro;}</style></defs><g id="Componente_8_9" data-name="Componente 8 9"><path id="Trazado_6303-2" data-name="Trazado 6303-2" class="cls-1" d="M28,13.32H130c13.81,0,25,10.34,25,23.09S143.81,59.5,130,59.5H28C14.19,59.5,3,49.16,3,36.41S14.19,13.32,28,13.32Z"/><path id="Trazado_6302-2" data-name="Trazado 6302-2" class="cls-2" d="M129.5,7.5A27.5,27.5,0,1,1,102,35,27.5,27.5,0,0,1,129.5,7.5Z"/><g id="Grupo_7482" data-name="Grupo 7482"><g id="Grupo_7226" data-name="Grupo 7226"><path id="Trazado_6148" data-name="Trazado 6148" class="cls-3" d="M129.92,19.12A14.71,14.71,0,0,1,133.76,48a14.3,14.3,0,0,1-11.23-1.46.68.68,0,0,0-.66,0c-1.59.65-3.19,1.29-4.78,1.92a1.34,1.34,0,0,1-1.78-.65,1.45,1.45,0,0,1-.12-.42,1.53,1.53,0,0,1,.13-.76l1.92-4.78a.54.54,0,0,0,0-.55,14.52,14.52,0,0,1-2-8.71,14.76,14.76,0,0,1,10.7-12.9,15.13,15.13,0,0,1,1.65-.36,15.38,15.38,0,0,1,2.34-.19m-11,25.68.33-.11c.78-.31,1.58-.6,2.35-.95a1.68,1.68,0,0,1,1.71.17,11.74,11.74,0,0,0,9.59,1.59,12,12,0,1,0-15-12.23,11.71,11.71,0,0,0,2,7.15,1.7,1.7,0,0,1,.17,1.74c-.37.84-.7,1.71-1.07,2.64"/><path id="Trazado_6149" data-name="Trazado 6149" class="cls-3" d="M129.87,33.21h-4.79a1.36,1.36,0,0,1-.86-2.41,1.27,1.27,0,0,1,.83-.31h9.7a1.36,1.36,0,1,1,0,2.72h-4.88"/><path id="Trazado_6150" data-name="Trazado 6150" class="cls-3" d="M128.57,38.56h-3.35a1.35,1.35,0,0,1-1.3-.77,1.29,1.29,0,0,1,.11-1.4,1.34,1.34,0,0,1,1.16-.58h6.75a1.38,1.38,0,1,1,.13,2.75h-3.51"/></g></g><g id="Elipse_604" data-name="Elipse 604"><circle class="cls-4" cx="16" cy="35" r="3"/><circle class="cls-5" cx="16" cy="35" r="2.5"/></g></g><text class="cls-6" transform="translate(23 38.59)">Chat en Línea</text></svg>