<svg id="Capa_1" data-name="Capa 1" xmlns="http://www.w3.org/2000/svg" viewBox="0 0 120 120"><defs><style>.cls-1{stroke:#0c0;stroke-miterlimit:10;stroke-width:0.92px;}</style></defs><path class="cls-1" d="M60,110.66c-6.84-.12-13.68-.19-20.51-.38-5.75-.16-11.34-1.17-16.37-4.13A25.21,25.21,0,0,1,10.6,88.08a92.33,92.33,0,0,1-1.14-14c-.15-10-.09-20.11,0-30.17.06-5.16.24-10.34,1.89-15.33C14.54,19,21.12,13.15,30.82,10.71c5-1.25,10.11-1.29,15.2-1.32,10-.07,20-.08,29.95,0,5.35.06,10.71.25,15.86,2.05,9.75,3.42,15.64,10.31,17.56,20.32a81.81,81.81,0,0,1,1.15,14c.15,10.05.09,20.11,0,30.16-.06,5.17-.24,10.35-1.89,15.33-3.17,9.57-9.75,15.44-19.45,17.88-5,1.25-10,1.23-15.09,1.33-4.7.09-9.39,0-14.09,0ZM101.66,60h-.2c0-4.32.11-8.65,0-13a109.21,109.21,0,0,0-.9-12.8,16.54,16.54,0,0,0-9.92-13.36,24.91,24.91,0,0,0-9.91-2c-9.24-.16-18.48-.33-27.71-.3-5.8,0-11.61.17-17.38.68-8.46.74-14.34,6-16,14.32a65.63,65.63,0,0,0-1,11.22q-.27,10.49-.11,21c.08,6.2.18,12.41.69,18.59.69,8.41,5.95,14.18,14.15,16.06,4.64,1.07,9.4,1,14.11,1q12.54.17,25.07,0c3.94,0,7.9-.25,11.83-.64a18.41,18.41,0,0,0,9.78-3.8c4.75-3.74,6.56-8.93,6.84-14.68C101.38,74.83,101.46,67.4,101.66,60Z"/><path class="cls-1" d="M60,85.93A26,26,0,1,1,86,59.43,26.08,26.08,0,0,1,60,85.93Zm0-42.85A16.86,16.86,0,1,0,76.86,59.94,16.93,16.93,0,0,0,60,43.08Z"/><path class="cls-1" d="M93.1,32.91A6.09,6.09,0,0,1,87,39a6.17,6.17,0,0,1-6.1-6,6.1,6.1,0,0,1,6.19-6.14A6,6,0,0,1,93.1,32.91Z"/></svg>