<svg id="Capa_1" data-name="Capa 1" xmlns="http://www.w3.org/2000/svg" viewBox="0 0 120 120"><defs><style>.cls-1{stroke:#0c0;stroke-miterlimit:10;}</style></defs><path class="cls-1" d="M102.24,109H17.69a2.92,2.92,0,0,0-.53-.21,7.07,7.07,0,0,1-6.09-7.38q0-41.37,0-82.73a9.37,9.37,0,0,1,.3-2.36,7.1,7.1,0,0,1,7.25-5.21h78.5c1.5,0,3,0,4.5,0a7.12,7.12,0,0,1,6.94,5.25c.13.46.24.91.36,1.37v84.57a6,6,0,0,0-.23.72,6.93,6.93,0,0,1-5.18,5.65C103.1,108.75,102.67,108.84,102.24,109ZM47.69,47.7c0,.4,0,.74,0,1.08q0,22.42,0,44.86c0,1,.35,1.21,1.26,1.2,3.95,0,7.91,0,11.86,0,1.39,0,1.39,0,1.39-1.44,0-8,0-15.94,0-23.91A10.11,10.11,0,0,1,65.25,62c2.88-2.78,8.39-3.65,11.57-.94a9.57,9.57,0,0,1,3.33,7.44c.1,8.29,0,16.58.06,24.87,0,1.44,0,1.44,1.4,1.44H93.37c1.44,0,1.44,0,1.44-1.4,0-8.64,0-17.28,0-25.92a36.59,36.59,0,0,0-.56-6.36c-1-5.21-3.51-9.51-8.25-12.15-6.64-3.69-13.25-3-19.72.55a14.78,14.78,0,0,0-4.84,4.24c-.09-1.75-.11-3.46-.07-5.17,0-.74-.24-1-1-1-4,0-7.9,0-11.85,0C48.25,47.65,48,47.68,47.69,47.7Zm-8,23.56c0-7.49,0-15,0-22.47,0-.83-.16-1.18-1.1-1.17q-6.21.09-12.43,0c-.94,0-1.1.35-1.1,1.17q0,22.43,0,44.85c0,.92.28,1.21,1.2,1.2,4.05,0,8.09,0,12.14,0,1.27,0,1.28,0,1.28-1.28ZM40.9,32.41a8.48,8.48,0,1,0-8.32,8.42A8.34,8.34,0,0,0,40.9,32.41Z"/></svg>