<svg id="Capa_1" data-name="Capa 1" xmlns="http://www.w3.org/2000/svg" viewBox="0 0 120 120"><defs><style>.cls-1{stroke:#0c0;}</style></defs><path class="cls-1" d="M29.81,7.54A27.27,27.27,0,0,0,8.16,27.44c-1,3.69-1,5.86-.92,34.53.06,26.33.08,26.94.52,29C10.19,101.9,18,109.71,29,112.29c1.44.33,3.28.4,15.11.46,12.25.09,13.52.07,13.85-.26s.35-4.55.35-52.4c0-35.47-.07-52.18-.22-52.49s-.59-.41-13.41-.39C34.31,7.23,31.18,7.3,29.81,7.54ZM49.6,60v44.31l-8.9-.11c-8.2-.08-9.08-.13-10.72-.54A18.55,18.55,0,0,1,16.25,89.37c-.48-2.21-.48-56.62,0-58.78A18.77,18.77,0,0,1,27.55,17.05c2.89-1.16,4.22-1.29,13.59-1.31l8.46,0Z"/><path class="cls-1" d="M31.69,29.08a11.6,11.6,0,0,0-4.6,2.3,9.68,9.68,0,0,0-3.25,8.13,6.81,6.81,0,0,0,.89,3.59,10,10,0,0,0,4.7,4.72,6.85,6.85,0,0,0,3.74.88,7.93,7.93,0,0,0,3.5-.4,9.88,9.88,0,0,0,6.81-10.93A10.06,10.06,0,0,0,31.69,29.08Z"/><path class="cls-1" d="M69,7.34c-.09.07-.16,23.77-.16,52.68,0,47.7,0,52.53.35,52.67.59.21,17.57.13,19.66-.09a27.33,27.33,0,0,0,21-14.44,32.78,32.78,0,0,0,1.64-3.82c1.38-4.11,1.33-3,1.33-34.45,0-25.08,0-28.82-.35-30.42A27.14,27.14,0,0,0,90.19,7.52c-1.53-.27-3.89-.33-11.5-.33C73.44,7.19,69.06,7.25,69,7.34ZM92.35,55A10.7,10.7,0,0,1,99.7,61.8a11.44,11.44,0,0,1,0,7,10.61,10.61,0,0,1-20.21-.52,12.52,12.52,0,0,1,.09-6.17A10.62,10.62,0,0,1,92.35,55Z"/></svg>