<svg id="Capa_1" data-name="Capa 1" xmlns="http://www.w3.org/2000/svg" viewBox="0 0 120 120"><defs><style>.cls-1{stroke:#0c0;}</style></defs><path class="cls-1" d="M64.17,104.09,45.54,98.18V15.71l2.28.46c7.56,1.65,15,3.84,22.33,6.23A54.58,54.58,0,0,1,81,27.05a21.38,21.38,0,0,1,8.6,8.6A24.73,24.73,0,0,1,92,44.22,44.33,44.33,0,0,1,92.31,52,20.55,20.55,0,0,1,90,61.17,10.86,10.86,0,0,1,81.79,67a15,15,0,0,1-7.07-.76c-.92-.3-1.79-.71-2.69-1-.35-.12-.43-.32-.43-.67q0-12.09,0-24.17c0-1.55,0-3.11-.09-4.66a7.26,7.26,0,0,0-1-3.56,4.24,4.24,0,0,0-3.11-2,2.24,2.24,0,0,0-2.28,1.06,5.6,5.6,0,0,0-.9,2.85c0,.48,0,1,0,1.45v68.59Z"/><path class="cls-1" d="M67.73,85.08v-.44c0-3.43,0-6.87,0-10.3a.5.5,0,0,1,.4-.57,67.21,67.21,0,0,1,13.72-3.06,58.44,58.44,0,0,1,24.55,2.19,30.29,30.29,0,0,1,7.42,3,8.8,8.8,0,0,1,2.63,2.38,4,4,0,0,1-.07,4.84,11,11,0,0,1-3.09,2.68,36.08,36.08,0,0,1-7.39,3.32q-17.49,6.26-35,12.55l-3.15,1.13c0-.2,0-.35,0-.51q0-4.91,0-9.8a.54.54,0,0,1,.41-.62Q82.76,86.7,97.37,81.47a23.18,23.18,0,0,0,2.32-1.08.78.78,0,0,0,.15-.1c1.19-.91,1.1-1.86-.25-2.51A10.46,10.46,0,0,0,95.46,77a23.8,23.8,0,0,0-9.06,1.56c-6.07,2.19-12.17,4.3-18.25,6.44Z"/><path class="cls-1" d="M41.87,65.59v.49c0,3.28,0,6.57,0,9.85a.56.56,0,0,1-.44.64q-9.27,3.29-18.52,6.62a22.43,22.43,0,0,0-2.17,1,1.5,1.5,0,0,0-.36.26c-1,.86-.92,1.72.25,2.34a8.78,8.78,0,0,0,3.35.82A22.88,22.88,0,0,0,34.37,86c2.33-.91,4.69-1.72,7-2.57l.45-.15v9.68c-1.18.18-2.35.39-3.52.54a60.83,60.83,0,0,1-8.42.53,62.11,62.11,0,0,1-18.64-3.08A21.55,21.55,0,0,1,6,88.63,8,8,0,0,1,3.3,86a4.26,4.26,0,0,1,1.29-5.73,24.14,24.14,0,0,1,6.18-3.43C14.49,75.34,18.25,74,22,72.63c6.42-2.3,12.86-4.57,19.29-6.86Z"/></svg>