<svg id="Capa_1" data-name="Capa 1" xmlns="http://www.w3.org/2000/svg" viewBox="0 0 120 120"><defs><style>.cls-1,.cls-2{stroke:#0c0;}.cls-2{fill:#fff;}</style></defs><path class="cls-1" d="M107.81,49.89c0-.46,0-.92-.08-1.39a47.75,47.75,0,0,0-95.47.34c-.11,1.49-.19,3-.21,4.48-.16,19.29-.09,38.59,0,57.88a13.58,13.58,0,0,0,1,3.56h1.46L27.64,98.48c3.36,4.25,6.5,8.43,9.88,12.41a34.17,34.17,0,0,0,4.71,3.87h2.92a36.38,36.38,0,0,0,4.63-4c3.32-4,6.42-8.08,9.82-12.41,2.89,3.67,5.63,7.22,8.44,10.71,1.8,2.23,3.22,4.9,6.32,5.69h2.43c1.63-1.25,3.54-2.26,4.84-3.78,3.4-4,6.55-8.23,9.87-12.45L105,114.76h2a14.1,14.1,0,0,0,1-3.62C108,90.72,108.57,70.28,107.81,49.89ZM78.6,61.17A10.69,10.69,0,0,1,67.88,50.32,10.53,10.53,0,0,1,78.54,39.74,10.74,10.74,0,0,1,89.35,50.51,11,11,0,0,1,78.6,61.17ZM41.16,39.73A10.73,10.73,0,0,1,51.91,50.56,10.94,10.94,0,0,1,41.12,61.18a10.71,10.71,0,0,1-10.67-10.9A10.59,10.59,0,0,1,41.16,39.73Z"/><path class="cls-2" d="M41.12,61.18A10.94,10.94,0,0,0,51.91,50.56,10.73,10.73,0,0,0,41.16,39.73,10.59,10.59,0,0,0,30.45,50.28,10.71,10.71,0,0,0,41.12,61.18Z"/><path class="cls-2" d="M78.54,39.74A10.53,10.53,0,0,0,67.88,50.32,10.69,10.69,0,0,0,78.6,61.17,11,11,0,0,0,89.35,50.51,10.74,10.74,0,0,0,78.54,39.74Z"/></svg>