<svg id="Capa_1" data-name="Capa 1" xmlns="http://www.w3.org/2000/svg" viewBox="0 0 120 120"><defs><style>.cls-1{stroke:#0c0;}</style></defs><path class="cls-1" d="M60.6,115.12a54.25,54.25,0,0,1-31.89-9.81,48.35,48.35,0,0,1-4-3c-2.07-1.75-2.56-4-2.14-6.63a28,28,0,0,1,3.56-9.11A92.86,92.86,0,0,1,36.81,71.8,173.26,173.26,0,0,1,57,51.79c.82-.68,1.71-1.27,2.56-1.91a1.08,1.08,0,0,1,1.49,0c1.5,1.25,3.07,2.44,4.52,3.76A216,216,0,0,1,84.88,73.42,77.22,77.22,0,0,1,95.57,89.31a22.19,22.19,0,0,1,2.18,6.36,12.64,12.64,0,0,1,.12,2.68,5,5,0,0,1-1.68,3.36,34.47,34.47,0,0,1-6.57,4.88,58.06,58.06,0,0,1-13.9,6.35,56.86,56.86,0,0,1-12.5,2Z"/><path class="cls-1" d="M104.08,93.2c.13-.8.29-1.47.37-2.16a22.22,22.22,0,0,0-.72-7.35,55.46,55.46,0,0,0-5-12.88A192.93,192.93,0,0,0,76.35,36.23c-.28-.34-.55-.69-.82-1a.38.38,0,0,1,0-.11.52.52,0,0,1,.06-.13,126.71,126.71,0,0,1,11.35-9.74A30.41,30.41,0,0,1,96,20.53a3.06,3.06,0,0,1,3.34.76,46.67,46.67,0,0,1,7.59,9.51,55.19,55.19,0,0,1,7.45,19.43,60.05,60.05,0,0,1,.64,7.83,53.64,53.64,0,0,1-.56,11.46,57.7,57.7,0,0,1-3.39,11.57,59.39,59.39,0,0,1-6.35,11.46,4.33,4.33,0,0,1-.38.47A1.19,1.19,0,0,1,104.08,93.2Z"/><path class="cls-1" d="M16.26,93.34c-.15-.19-.32-.37-.46-.57A54.11,54.11,0,0,1,6.6,72.44,82.84,82.84,0,0,1,5,61.91a29,29,0,0,1,.3-6.58A72.33,72.33,0,0,1,7,45.55a55.38,55.38,0,0,1,11.57-21.8c.75-.85,1.58-1.63,2.38-2.44a3.11,3.11,0,0,1,3.29-.78,27.2,27.2,0,0,1,8.47,4.21,113.65,113.65,0,0,1,10.53,8.83L45,35.1c-1.05,1.31-2.09,2.56-3.09,3.84A183.07,183.07,0,0,0,20.63,72.65a50.67,50.67,0,0,0-4.42,12.89,17.18,17.18,0,0,0-.28,6.23c.1.51.28,1,.42,1.51Z"/><path class="cls-1" d="M32.38,12.23A54.82,54.82,0,0,1,52.91,5.29C65.48,3.9,77.35,6,88.29,12.61l-1.56-.09a33.72,33.72,0,0,0-12.31,1.91,92.88,92.88,0,0,0-12.1,5.07c-.57.27-1.18.5-1.75.79a1.27,1.27,0,0,1-1.24,0c-2.34-1.14-4.65-2.33-7-3.37a56.06,56.06,0,0,0-11.91-4A42.29,42.29,0,0,0,35,12.49c-.85-.05-1.7,0-2.55,0Z"/></svg>