<svg id="Capa_1" data-name="Capa 1" xmlns="http://www.w3.org/2000/svg" viewBox="0 0 120 120"><defs><style>.cls-1{stroke:#0c0;stroke-miterlimit:10;}</style></defs><path class="cls-1" d="M57.06,96.27c-5.42-.11-14.41-.26-23.41-.47-2.89-.07-5.78-.24-8.67-.43a30.73,30.73,0,0,1-3.17-.5c-.48-.08-1-.2-1.45-.25a12.42,12.42,0,0,1-5.37-2,9.83,9.83,0,0,1-3.68-3.84,25.71,25.71,0,0,1-1.89-4.87C7.7,77.28,7.73,70.48,7.71,63.72c0-5.93.12-11.87.31-17.8a45.53,45.53,0,0,1,.75-7.17,21.66,21.66,0,0,1,3-8.16,13.8,13.8,0,0,1,2.74-2.87,14.13,14.13,0,0,1,5.94-2.59,46.73,46.73,0,0,1,9.12-.75c10-.28,19.9-.59,29.85-.64,8.85-.06,17.7.18,26.55.36,3.66.08,7.33.25,11,.51a16.64,16.64,0,0,1,6.14,1.5,12.09,12.09,0,0,1,6.08,6,30.55,30.55,0,0,1,2.36,9.22c1.16,11.26.87,22.53.37,33.81a38.36,38.36,0,0,1-.67,6,22.53,22.53,0,0,1-3,8.24,11.91,11.91,0,0,1-4.07,3.75,20,20,0,0,1-8.92,2.22C83.71,96.08,72.17,96.21,57.06,96.27Zm2.56-6.2c5.57-.13,10.8-.24,16-.39,6-.17,12-.34,17.93-.61C95.9,89,98.25,89,100.45,88a5.72,5.72,0,0,0,2.63-2.19,14,14,0,0,0,1.93-6c.41-4,.84-8,.92-12,.19-9,.33-18-.8-27a23,23,0,0,0-1.6-6.06,5.54,5.54,0,0,0-2.43-2.63,10.76,10.76,0,0,0-5-1.28c-4.57-.25-9.14-.52-13.72-.62-8-.18-15.93-.23-23.89-.34-10.77-.14-21.53.52-32.29.87-2.38.08-4.8.14-7,1.27a5.61,5.61,0,0,0-2.36,2,15.18,15.18,0,0,0-2,6.22c-.41,3.43-.77,6.88-.85,10.33-.18,8.26-.46,16.53.42,24.78.34,3.17.48,6.37,1.76,9.38a5.35,5.35,0,0,0,2.86,3.09A22.19,22.19,0,0,0,26.2,89.1c3.52.2,7.05.24,10.57.33Z"/><path class="cls-1" d="M50.58,74.33q0-12.54,0-25.08c0-1.16-.12-2.33-.18-3.5,0-.84.34-1.17,1.15-.91a4.37,4.37,0,0,1,.8.42l4.4,2.66c1.11.68,2.2,1.41,3.31,2.07s2.08,1.13,3.11,1.72S65.3,53,66.37,53.63l4.33,2.54c1.54.9,3.08,1.8,4.63,2.68a9,9,0,0,1,.9.38c.25.18.57.48.58.74s-.31.58-.57.73c-1.23.73-2.49,1.4-3.73,2.1-1,.54-2,1.08-2.92,1.64-1.11.64-2.2,1.29-3.3,1.94L65,67.16c-1.57.88-3.15,1.74-4.71,2.65-1.08.63-2.11,1.35-3.19,2S54.89,73,53.81,73.66c-.5.3-1,.67-1.44,1a4.19,4.19,0,0,1-1,.5c-.69.19-1-.1-1-.81Z"/></svg>